<svg xmlns="http://www.w3.org/2000/svg" id="Layer_2" viewBox="0 0 397.26 35.1"><defs><style>.cls-1{fill:#fff;}.cls-2{fill:#c94427;}.cls-3{fill:none;stroke:#1b4485;stroke-miterlimit:10;}.cls-4{fill:#1b4485;}</style></defs><g id="Layer_1-2"><g><g><path class="cls-4" d="M30.91,34.63l-8.43-9.43H11.71v-6.33h13.43c3.62,0,5.62-2.14,5.62-5.81s-2.1-5.62-5.62-5.62H7.38v27.19H0V0H25.14c8.1,0,12.91,5,12.91,12.86,0,5.67-2.67,9.62-7,11.33l10.38,10.43h-10.52Z"></path><path class="cls-4" d="M44.1,34.63V0h31.43V7.43h-24.05V27.2h24.1v7.43h-31.48Zm11.71-14.67v-5.86h18.38v5.86h-18.38Z"></path><path class="cls-4" d="M77.97,0h9.05l14.48,24.72L115.92,0h8.52l-19.67,32.72c-.9,1.48-2,2.38-3.57,2.38s-2.71-.9-3.57-2.38L77.97,0Z"></path><path class="cls-4" d="M125.36,0h9.05l14.48,24.72L163.31,0h8.52l-19.67,32.72c-.9,1.48-2,2.38-3.57,2.38s-2.71-.9-3.57-2.38L125.36,0Z"></path><path class="cls-4" d="M175.08,34.63V0h31.43V7.43h-24.05V27.2h24.1v7.43h-31.48Zm11.72-14.67v-5.86h18.38v5.86h-18.38Z"></path><path class="cls-4" d="M242.19,34.63l-8.43-9.43h-10.76v-6.33h13.43c3.62,0,5.62-2.14,5.62-5.81s-2.1-5.62-5.62-5.62h-17.76v27.19h-7.38V0h25.15c8.1,0,12.91,5,12.91,12.86,0,5.67-2.67,9.62-7,11.33l10.38,10.43h-10.54Z"></path><g id="Page-1"><g id="_24---Registered-Trademark"><circle id="Oval" class="cls-3" cx="253.08" cy="3.86" r="2.93"></circle><path id="Shape" class="cls-4" d="M254.42,5.13l-.57-1.06c.1-.05,.19-.11,.27-.19,.2-.2,.3-.47,.28-.75-.05-.51-.48-.9-.99-.89h-1.24c-.06,0-.1,.05-.1,.1v2.83c0,.06,.05,.1,.1,.1h.51c.06,0,.1-.05,.1-.1v-1.01h.35l.53,1.06s.05,.06,.09,.06h.58s.07-.02,.09-.05,.02-.07,0-.1h0Zm-.98-1.57h-.66v-.71h.66c.2,0,.35,.16,.35,.35s-.16,.35-.35,.35Z"></path></g></g></g><rect class="cls-2" x="262.2" width="135.06" height="34.63"></rect><g><path class="cls-1" d="M277.8,6.06c3.69,0,5.7,2.01,5.7,5.73v11.2c0,3.72-2.01,5.73-5.7,5.73h-4.92V6.06h4.92Zm-1.49,19.48h1.36c1.65,0,2.39-.87,2.39-2.78V12.02c0-1.91-.74-2.78-2.39-2.78h-1.36V25.54Z"></path><path class="cls-1" d="M293.4,28.72V6.06h3.43V28.72h-3.43Z"></path><path class="cls-1" d="M317.48,11.17v1.55l-3.3,.16v-1.36c0-1.81-.68-2.62-2.01-2.62s-2.01,.81-2.01,2.3v12.36c0,1.49,.65,2.3,1.97,2.3s1.97-.81,1.97-2.62v-3.88h-1.94v-3.17h5.31v7.41c0,3.43-1.97,5.44-5.4,5.44s-5.34-2.01-5.34-5.44V11.17c0-3.43,1.94-5.44,5.34-5.44s5.4,2.01,5.4,5.44h.01Z"></path><path class="cls-1" d="M327.28,28.72V6.06h3.43V28.72h-3.43Z"></path><path class="cls-1" d="M346.54,9.3V28.72h-3.43V9.3h-3.66v-3.24h10.75v3.24h-3.66Z"></path><path class="cls-1" d="M365.28,28.72l-.75-5.15h-3.79l-.74,5.15h-3.43l3.92-22.66h4.37l3.92,22.66h-3.5Zm-4.08-8.25h2.88l-1.39-9.55h-.1l-1.39,9.55h0Z"></path><path class="cls-1" d="M386.97,25.48v3.24h-9.16V6.06h3.43V25.48h5.73Z"></path></g></g></g></svg>